<svg id="svg" xmlns="http://www.w3.org/2000/svg" xmlns:xlink="http://www.w3.org/1999/xlink" width="500" height="564.4247787610619" viewBox="0, 0, 500,564.4247787610619"><g id="svgg"><path id="path0" d="M242.920 0.119 C 213.515 2.603,190.432 22.994,182.851 53.186 C 178.352 71.103,179.284 87.292,185.695 102.566 C 193.197 120.439,205.828 132.600,223.922 139.372 L 226.339 140.277 226.448 163.546 C 226.578 191.681,226.412 196.117,224.919 204.292 L 224.540 206.372 180.765 206.372 L 136.991 206.372 136.991 223.186 L 136.991 240.000 181.726 240.000 L 226.460 240.000 226.473 276.327 C 226.480 296.308,226.599 325.956,226.738 342.212 C 227.158 391.213,226.985 496.083,226.484 496.584 C 226.454 496.614,225.042 496.757,223.347 496.901 C 171.120 501.327,131.909 487.323,105.906 454.956 C 92.550 438.332,81.514 415.180,73.431 386.830 C 72.241 382.656,69.501 372.033,69.591 371.943 C 69.663 371.870,81.636 370.368,85.133 369.992 C 86.544 369.841,89.218 369.670,91.074 369.612 L 94.448 369.508 94.845 370.012 C 95.171 370.426,95.272 370.471,95.406 370.259 C 95.669 369.843,95.609 369.731,94.990 369.472 C 92.708 368.519,73.486 342.615,49.215 307.788 C 46.468 303.845,44.151 300.619,44.066 300.619 C 43.981 300.619,43.237 301.973,42.413 303.628 C 37.388 313.719,25.158 332.223,9.404 353.572 C 2.041 363.550,0.000 367.124,0.000 370.039 C 0.000 372.066,-1.491 371.858,13.067 371.858 L 25.768 371.858 27.508 378.274 C 42.349 432.988,51.632 456.227,67.261 477.788 C 88.468 507.045,112.959 520.996,169.912 536.262 C 206.639 546.107,234.346 555.774,248.166 563.563 C 250.083 564.644,249.826 564.671,252.608 563.088 C 267.752 554.468,294.831 544.793,332.832 534.424 C 365.724 525.449,386.404 517.223,402.212 506.825 C 420.352 494.893,435.850 474.831,447.887 447.699 C 449.160 444.831,451.846 437.312,462.047 408.053 L 474.637 371.947 487.318 371.901 C 494.293 371.877,500.000 371.804,500.000 371.741 C 500.000 371.408,488.776 354.825,477.798 338.938 C 468.433 325.385,459.893 312.312,454.704 303.584 C 453.706 301.905,452.835 300.531,452.768 300.531 C 452.702 300.531,452.298 301.098,451.870 301.792 C 449.767 305.199,430.312 333.377,408.463 364.659 C 405.755 368.536,403.540 371.766,403.540 371.837 C 403.540 372.216,421.556 374.493,425.708 374.638 C 427.338 374.695,428.673 374.757,428.673 374.775 C 428.673 374.990,425.932 384.945,425.042 387.965 C 400.743 470.356,352.437 504.826,274.248 495.566 C 272.593 495.370,271.040 495.170,270.796 495.122 L 270.354 495.036 270.423 462.252 C 270.460 444.221,270.387 405.854,270.260 376.991 C 269.945 305.411,270.296 278.321,271.950 246.372 C 272.094 243.597,272.212 241.029,272.212 240.664 L 272.212 240.000 316.814 240.000 L 361.416 240.000 361.416 223.200 L 361.416 206.400 360.863 206.278 C 360.559 206.212,345.287 206.184,326.925 206.216 C 292.657 206.277,291.061 206.254,281.770 205.567 C 278.662 205.338,274.790 204.944,271.194 204.492 L 270.265 204.375 270.309 172.339 L 270.354 140.303 271.239 140.056 C 282.494 136.919,290.759 132.253,298.142 124.868 C 331.125 91.875,321.584 27.313,280.694 6.794 C 270.404 1.630,255.730 -0.963,242.920 0.119 M258.496 37.946 C 274.985 40.978,283.981 51.646,285.317 69.749 C 286.766 89.397,272.037 104.767,250.575 106.002 C 232.080 107.067,216.794 96.214,213.459 79.652 C 208.723 56.126,219.992 41.380,245.310 37.975 C 246.429 37.825,247.584 37.669,247.876 37.629 C 249.279 37.436,256.974 37.666,258.496 37.946 " stroke="none" fill="#000000" fill-rule="evenodd"></path></g></svg>